<?xml version="1.0" encoding="UTF-8" standalone="no"?>
<svg
   viewBox="0 0 280 80"
   width="280"
   height="80"
   version="1.1"
   id="svg20"
   sodipodi:docname="logo.svg"
   inkscape:version="1.4.3 (0d15f75042, 2025-12-25)"
   inkscape:export-filename="logo.png"
   inkscape:export-xdpi="96"
   inkscape:export-ydpi="96"
   xmlns:inkscape="http://www.inkscape.org/namespaces/inkscape"
   xmlns:sodipodi="http://sodipodi.sourceforge.net/DTD/sodipodi-0.dtd"
   xmlns="http://www.w3.org/2000/svg"
   xmlns:svg="http://www.w3.org/2000/svg">
  <sodipodi:namedview
     id="namedview20"
     pagecolor="#ffffff"
     bordercolor="#000000"
     borderopacity="0.25"
     inkscape:showpageshadow="2"
     inkscape:pageopacity="0.0"
     inkscape:pagecheckerboard="0"
     inkscape:deskcolor="#d1d1d1"
     inkscape:zoom="1.1477858"
     inkscape:cx="268.77837"
     inkscape:cy="179.91161"
     inkscape:window-width="1920"
     inkscape:window-height="1018"
     inkscape:window-x="0"
     inkscape:window-y="0"
     inkscape:window-maximized="1"
     inkscape:current-layer="svg20" />
  <defs
     id="defs3">
    <filter
       id="sh"
       x="-0.033333334"
       y="-0.033333334"
       width="1.0666667"
       height="1.0666667">
      <feDropShadow
         dx="0.5"
         dy="1.2"
         stdDeviation="1.8"
         flood-color="#3A1A05"
         flood-opacity="0.45" />
    </filter>
    <clipPath
       id="ca">
      <circle
         cx="22"
         cy="24"
         r="14"
         id="circle1" />
    </clipPath>
    <clipPath
       id="cb">
      <circle
         cx="83"
         cy="16"
         r="12"
         id="circle2" />
    </clipPath>
    <clipPath
       id="cc">
      <circle
         cx="52"
         cy="60"
         r="12"
         id="circle3" />
    </clipPath>
  </defs>
  <!-- Edges -->
  <path
     id="line3"
     style="opacity:0.5;stroke:#9b6430;stroke-width:1.6;stroke-linecap:round"
     d="M 38.553611,23.386272 68.188874,19.306864"
     sodipodi:nodetypes="cc" />
  <path
     id="line4"
     style="opacity:0.5;stroke:#9b6430;stroke-width:1.6;stroke-linecap:round"
     d="m 32.237101,39.06864 9.525798,11.823016"
     sodipodi:nodetypes="cc" />
  <path
     id="line5"
     style="opacity:0.5;stroke:#9b6430;stroke-width:1.6;stroke-linecap:round"
     d="M 74.069763,30.85083 61.583669,49.366982"
     sodipodi:nodetypes="cc" />
  <!-- Node A -->
  <circle
     cx="22"
     cy="26"
     r="14"
     fill="none"
     stroke="#7a4210"
     stroke-width="1.8"
     filter="url(#sh)"
     id="circle5" />
  <g
     clip-path="url(#ca)"
     id="g9"
     transform="matrix(0.88448845,0,0,0.88448845,2.5407041,6.0792079)">
    <polygon
       points="11,22 15,30 22,34 31,32 33,24 30,16 24,11 16,12 13,15 "
       fill="#6b3a12"
       id="polygon5" />
    <polygon
       points="10,22 14,30 22,34 30,31 32,23 29,15 23,10 15,11 12,15 "
       fill="#c07828"
       id="polygon6" />
    <polygon
       points="19,23 12,19 12,15 16,11 22,11 27,15 25,22 "
       fill="#e8a84c"
       opacity="0.5"
       id="polygon7" />
    <circle
       cx="26"
       cy="27"
       r="1.5"
       fill="#4a200a"
       opacity="0.3"
       id="circle7" />
    <circle
       cx="19"
       cy="28"
       r="1.2"
       fill="#4a200a"
       opacity="0.25"
       id="circle8" />
    <circle
       cx="23"
       cy="21"
       r="1"
       fill="#4a200a"
       opacity="0.2"
       id="circle9" />
  </g>
  <circle
     cx="22"
     cy="26"
     r="14"
     fill="none"
     stroke="#7A4210"
     stroke-width="1.8"
     id="circle10"
     style="stroke:#ff6600" />
  <!-- Node B -->
  <circle
     cx="83"
     cy="18"
     r="12"
     fill="none"
     stroke="#7a4210"
     stroke-width="1.6"
     filter="url(#sh)"
     id="circle11" />
  <g
     clip-path="url(#cb)"
     id="g14"
     transform="translate(0.770077,1.3839384)">
    <polygon
       points="88,11 83,9 75,11 73,17 77,23 83,26 89,23 91,17 "
       fill="#6b3a12"
       id="polygon11" />
    <polygon
       points="87,11 83,8 74,11 73,17 76,22 83,25 89,22 90,17 "
       fill="#b06818"
       id="polygon12" />
    <path
       id="polygon13"
       style="opacity:0.5;fill:#e0a848"
       d="m 83,8 5,4 -2,6 h -5 l -7,-3 v -4 z"
       sodipodi:nodetypes="ccccccc" />
    <circle
       cx="85"
       cy="21"
       r="1.3"
       fill="#4a200a"
       opacity="0.3"
       id="circle13" />
    <circle
       cx="79"
       cy="19"
       r="1"
       fill="#4a200a"
       opacity="0.22"
       id="circle14" />
  </g>
  <circle
     cx="83"
     cy="18"
     r="12"
     fill="none"
     stroke="#7A4210"
     stroke-width="1.6"
     id="circle15"
     style="stroke:#5aa02c" />
  <!-- Node C -->
  <circle
     cx="52"
     cy="62"
     r="12"
     fill="none"
     stroke="#7a4210"
     stroke-width="1.6"
     filter="url(#sh)"
     id="circle16" />
  <g
     clip-path="url(#cc)"
     id="g19"
     transform="translate(0,2)">
    <polygon
       points="42,61 46,67 52,70 59,67 61,61 58,54 52,52 44,55 "
       fill="#6b3a12"
       id="polygon16" />
    <polygon
       points="42,61 45,66 52,69 58,66 60,61 57,54 52,51 43,55 "
       fill="#bc7222"
       id="polygon17" />
    <path
       id="polygon18"
       style="opacity:0.5;fill:#e0aa46"
       d="m 43,55 9,-4 5,3 -1,8 h -6 l -7,-3 z"
       sodipodi:nodetypes="ccccccc" />
    <circle
       cx="54"
       cy="64"
       r="1.3"
       fill="#4a200a"
       opacity="0.3"
       id="circle18" />
    <circle
       cx="49"
       cy="63"
       r="1"
       fill="#4a200a"
       opacity="0.22"
       id="circle19" />
  </g>
  <circle
     cx="52"
     cy="62"
     r="12"
     fill="none"
     stroke="#7a4210"
     stroke-width="1.6"
     id="circle20" />
  <!-- Logotype -->
  <path
     style="font-size:47.8062px;line-height:57.3675px;font-family:Gluten;-inkscape-font-specification:Gluten;letter-spacing:-0.448183px;fill:#c87137;stroke-width:2.39031"
     d="m 94.008567,58.882588 q -0.860511,0 -1.410282,-0.454159 -0.549772,-0.454159 -0.812706,-1.314671 -0.262934,-0.884414 -0.262934,-2.127376 0,-1.099542 0.04781,-2.366406 0.07171,-1.290768 0.215128,-2.653244 0.143419,-1.362477 0.358547,-2.701051 0.215128,-1.338573 0.501965,-2.581534 0.31074,-1.266865 0.717093,-2.342504 1.171252,-2.70105 2.892275,-4.135236 1.721023,-1.458089 4.135231,-1.458089 1.72103,0 2.86838,0.956124 1.14735,0.932221 1.88834,2.438116 0.7649,1.505895 1.29077,3.226918 0.40635,1.195155 0.88441,2.127376 0.47807,0.908318 1.07564,0.908318 0.7171,0 1.45809,-0.908318 0.741,-0.908318 1.5298,-2.318601 1.12345,-1.983957 2.19909,-3.39424 1.09954,-1.434186 2.39031,-2.199085 1.31467,-0.788802 3.0835,-0.788802 2.3664,0 3.80059,1.410283 1.43418,1.410283 2.07957,3.800593 0.64538,2.366406 0.64538,5.282584 0,1.123446 -0.0478,2.318601 -0.0478,1.195155 -0.16733,2.39031 -0.0956,1.195155 -0.26293,2.318601 -0.16732,1.099542 -0.38245,2.055666 -0.40635,1.314671 -1.00393,1.888345 -0.59758,0.549771 -1.57761,0.549771 -0.88441,0 -1.43418,-0.478062 -0.54977,-0.501965 -0.81271,-1.338573 -0.0478,-0.501965 -0.0717,-1.171252 0,-0.69319 0.0239,-1.505895 0.0239,-0.836609 0.0478,-1.792733 0.0478,-0.956124 0.0478,-2.079569 0.0239,-1.123446 0,-2.366407 -0.0478,-1.410283 -0.28684,-2.629341 -0.23903,-1.219058 -0.7649,-1.983957 -0.52586,-0.7649 -1.38638,-0.7649 -0.8366,0 -1.6015,0.7649 -0.741,0.740996 -1.45809,1.960054 -0.69319,1.219058 -1.41029,2.629341 -1.12344,2.3186 -2.19908,3.537658 -1.07564,1.195155 -2.72495,1.195155 -1.62541,0 -2.50983,-1.123445 -0.86051,-1.147349 -1.38638,-3.107403 -0.40635,-1.529799 -0.83661,-2.748857 -0.43025,-1.219058 -1.00393,-1.936151 -0.54977,-0.717093 -1.38638,-0.717093 -0.8127,0 -1.48199,0.7649 -0.669287,0.764899 -1.219058,2.3186 -0.573674,1.721023 -0.908318,3.489853 -0.334643,1.768829 -0.501965,3.418143 -0.143418,1.649314 -0.191225,3.01179 -0.239031,1.458089 -0.836608,2.103473 -0.573674,0.621481 -1.840539,0.621481 z m 38.442173,0.191224 q -1.12345,0 -1.79273,-0.454159 -0.64539,-0.430255 -0.90832,-1.386379 -0.26294,-0.980027 -0.26294,-2.46202 0,-0.812705 0.0239,-1.960054 0.0478,-1.147348 0.11951,-2.485922 0.0717,-1.362477 0.16733,-2.748856 0.0956,-1.38638 0.21512,-2.653244 0.11952,-1.290768 0.23903,-2.318601 0.11952,-1.027833 0.23903,-1.649314 0.47807,-1.505895 1.41029,-2.246891 0.95612,-0.740996 2.39031,-0.740996 1.36247,0 1.98395,1.027833 0.62149,1.027833 0.62149,2.963984 0,0.717093 -0.0478,1.936151 -0.0478,1.219058 -0.14342,2.701051 -0.0956,1.481992 -0.21513,3.035693 -0.0956,1.553702 -0.26293,2.987888 -0.14342,1.410282 -0.28684,2.509825 -0.14342,1.075639 -0.33464,1.625411 -0.47806,1.290767 -1.26687,1.792732 -0.7649,0.525868 -1.88834,0.525868 z m 1.62541,-24.811416 q -2.24689,0 -3.0835,-0.7649 -0.83661,-0.764899 -0.83661,-1.721023 0,-1.219058 0.88442,-2.031763 0.88441,-0.836609 2.17518,-1.266864 1.29077,-0.430256 2.58153,-0.430256 0.93222,0 1.72103,0.31074 0.7888,0.31074 1.24296,0.956124 0.47806,0.645384 0.47806,1.69712 0,1.147349 -0.71709,1.864442 -0.7171,0.717093 -1.88835,1.051736 -1.17125,0.334644 -2.55763,0.334644 z m 19.77382,34.731202 q -2.96398,0 -5.09136,-0.454158 -2.12737,-0.430256 -3.48985,-1.123446 -1.33857,-0.669287 -1.98395,-1.458089 -0.62149,-0.764899 -0.62149,-1.458089 0,-0.621481 0.38245,-1.051737 0.40636,-0.406352 1.05174,-0.62148 0.66929,-0.215128 1.5059,-0.215128 0.66928,0 1.5537,0.286837 0.90831,0.286837 2.05566,0.645384 1.17126,0.382449 2.62934,0.645384 1.482,0.262934 3.27473,0.191224 1.93615,-0.0239 3.27472,-0.717093 1.33858,-0.69319 2.17519,-1.840538 0.8366,-1.123446 1.21905,-2.462019 0.38245,-1.314671 0.38245,-2.653244 0,-0.239031 -0.0478,-0.406353 -0.0239,-0.167322 -0.0956,-0.262934 -0.0717,-0.119516 -0.21512,-0.119516 -0.26294,0 -0.86051,0.501965 -0.57368,0.478062 -1.57761,1.099543 -0.98003,0.62148 -2.46202,1.099542 -1.45809,0.501966 -3.46595,0.501966 -3.77669,0 -6.33432,-1.266865 -2.55763,-1.266864 -3.8723,-3.633271 -1.29077,-2.39031 -1.29077,-5.71284 0,-2.987888 1.14735,-5.139167 1.14735,-2.175182 3.13131,-3.585465 2.00786,-1.410282 4.54159,-2.079569 2.55763,-0.669287 5.33039,-0.669287 3.01179,0 5.4021,0.932221 2.39031,0.908318 4.03962,2.677147 1.67322,1.768829 2.53373,4.302558 0.88441,2.509825 0.88441,5.71284 0,4.78062 -0.98002,8.24657 -0.95613,3.465949 -2.86838,5.688937 -1.88834,2.246892 -4.70891,3.322531 -2.82056,1.075639 -6.54945,1.075639 z m 1.07564,-13.935506 q 1.64932,0 3.10741,-0.501965 1.45809,-0.525869 2.55763,-1.458089 1.09954,-0.956124 1.72102,-2.246892 0.64539,-1.290767 0.64539,-2.844469 0,-1.888344 -0.83661,-3.346433 -0.81271,-1.481993 -2.36641,-2.318601 -1.5537,-0.860512 -3.80059,-0.860512 -1.33858,0 -2.77276,0.334644 -1.43419,0.31074 -2.65325,1.123445 -1.21905,0.788803 -1.98395,2.151279 -0.741,1.362477 -0.741,3.442047 0,1.960054 0.86051,3.442046 0.88442,1.481992 2.48592,2.294697 1.60151,0.788803 3.77669,0.788803 z m 27.32718,5.688937 q -1.93615,0 -3.68108,-0.382449 -1.72102,-0.38245 -3.05959,-1.219058 -1.33858,-0.836609 -2.10348,-2.175182 -0.7649,-1.338574 -0.7649,-3.274725 0,-2.199085 1.07564,-3.609368 1.07564,-1.410283 2.91618,-2.199085 1.86444,-0.812705 4.18304,-1.123446 2.3186,-0.31074 4.80453,-0.31074 0.7649,0 1.5537,0.04781 0.7888,0.04781 1.48199,0.09561 0.71709,0.04781 1.17125,0.04781 0.62148,0 0.83661,-0.191225 0.21513,-0.215128 0.21513,-0.717093 0,-0.932221 -0.23903,-1.649314 -0.21513,-0.717093 -0.64539,-1.266864 -0.43025,-0.549771 -1.02783,-0.932221 -0.95612,-0.645384 -2.3186,-0.908318 -1.33857,-0.286837 -2.89228,-0.286837 -1.84053,0 -3.27472,0.38245 -1.41028,0.382449 -2.50983,0.788802 -1.09954,0.406353 -2.00786,0.406353 -1.24296,0 -1.91224,-0.406353 -0.66929,-0.406353 -0.66929,-1.31467 0,-0.932221 0.7888,-1.721024 0.7888,-0.788802 2.17518,-1.386379 1.41029,-0.597578 3.25083,-0.932221 1.86444,-0.334644 3.96791,-0.334644 4.23085,0 7.07532,1.07564 2.86837,1.051736 4.30255,3.442046 1.43419,2.366407 1.43419,6.382128 0,1.195155 -0.11951,2.079569 -0.11952,0.884415 -0.31074,1.553702 -0.16733,0.645383 -0.28684,1.123445 -0.11952,0.478062 -0.11952,0.884415 0,0.573674 0.35855,1.099543 0.38245,0.501965 0.88441,1.00393 0.52587,0.501965 0.90832,1.075639 0.38245,0.549771 0.38245,1.242961 0,1.027834 -0.66929,1.481992 -0.66928,0.454159 -1.48199,0.454159 -0.74099,0 -1.24296,-0.501965 -0.47806,-0.478062 -0.88441,-0.956124 -0.38245,-0.478062 -0.95613,-0.478062 -0.33464,0 -0.74099,0.191225 -0.38245,0.191225 -0.95613,0.597578 -0.71709,0.525868 -1.84054,1.171251 -1.09954,0.669287 -2.82056,1.147349 -1.72103,0.501965 -4.23085,0.501965 z m 0.64538,-3.657174 q 1.482,0 2.86837,-0.454159 1.38638,-0.478062 2.48593,-1.290767 1.09954,-0.836609 1.74492,-1.936151 0.64539,-1.123446 0.64539,-2.414213 0,-0.812706 -0.54977,-1.171252 -0.52587,-0.358546 -1.74493,-0.454159 -1.21906,-0.09561 -3.22692,-0.09561 -1.98396,0 -3.68108,0.406352 -1.69712,0.38245 -2.72495,1.314671 -1.02783,0.908318 -1.02783,2.485922 0,1.219058 0.62148,2.00786 0.62148,0.788803 1.79273,1.195155 1.17125,0.406353 2.79666,0.406353 z m 18.29189,12.357902 q -1.5298,0 -2.79666,-0.31074 -1.29077,-0.286837 -2.03176,-0.860512 -0.7649,-0.573674 -0.7649,-1.410282 0,-0.788803 0.45416,-1.266865 0.45416,-0.454159 1.14735,-0.62148 0.71709,-0.119516 1.86444,-0.0239 1.14735,0.09561 2.48592,0.09561 1.64931,0 2.3425,-2.270794 0.7171,-2.270795 0.7171,-6.501643 0,-0.812706 -0.0478,-1.960054 -0.0478,-1.147349 -0.11952,-2.46202 -0.0717,-1.31467 -0.16732,-2.677147 -0.0956,-1.362476 -0.16732,-2.629341 -0.0717,-1.266864 -0.14342,-2.3186 -0.0478,-1.07564 -0.0478,-1.744926 0,-2.175182 0.83661,-3.0835 0.86051,-0.908318 2.3903,-0.908318 1.14735,0 1.79274,0.478062 0.66928,0.454159 0.98002,1.38638 0.33465,0.908318 0.45416,2.246891 0.14342,1.314671 0.21513,3.011791 0.0478,0.740996 0.0956,1.816635 0.0717,1.07564 0.11952,2.318601 0.0717,1.242961 0.11951,2.485922 0.0478,1.242961 0.0717,2.294698 0.0478,1.051736 0.0478,1.721023 0,4.08743 -1.05174,7.027511 -1.02783,2.963984 -3.20301,4.565492 -2.15128,1.601507 -5.59333,1.601507 z m 6.54945,-35.161458 q -0.90832,0 -1.81663,-0.143419 -0.88442,-0.167322 -1.62541,-0.478062 -0.7171,-0.334643 -1.17126,-0.860512 -0.43025,-0.525868 -0.43025,-1.266864 0,-1.123445 0.54977,-1.768829 0.54977,-0.669287 1.5298,-0.956124 1.00393,-0.31074 2.3425,-0.31074 0.86051,0 1.72102,0.191224 0.86052,0.191225 1.55371,0.573675 0.71709,0.382449 1.14735,0.980027 0.43025,0.573674 0.43025,1.38638 0,0.836608 -0.54977,1.434186 -0.52587,0.597577 -1.48199,0.908317 -0.95613,0.310741 -2.19909,0.310741 z m 17.6465,26.46073 q -1.93615,0 -3.68108,-0.382449 -1.72102,-0.38245 -3.0596,-1.219058 -1.33857,-0.836609 -2.10347,-2.175182 -0.7649,-1.338574 -0.7649,-3.274725 0,-2.199085 1.07564,-3.609368 1.07564,-1.410283 2.91618,-2.199085 1.86444,-0.812705 4.18304,-1.123446 2.3186,-0.31074 4.80452,-0.31074 0.7649,0 1.5537,0.04781 0.78881,0.04781 1.482,0.09561 0.71709,0.04781 1.17125,0.04781 0.62148,0 0.83661,-0.191225 0.21512,-0.215128 0.21512,-0.717093 0,-0.932221 -0.23903,-1.649314 -0.21512,-0.717093 -0.64538,-1.266864 -0.43026,-0.549771 -1.02783,-0.932221 -0.95613,-0.645384 -2.3186,-0.908318 -1.33858,-0.286837 -2.89228,-0.286837 -1.84054,0 -3.27472,0.38245 -1.41029,0.382449 -2.50983,0.788802 -1.09954,0.406353 -2.00786,0.406353 -1.24296,0 -1.91225,-0.406353 -0.66928,-0.406353 -0.66928,-1.31467 0,-0.932221 0.7888,-1.721024 0.7888,-0.788802 2.17518,-1.386379 1.41028,-0.597578 3.25082,-0.932221 1.86444,-0.334644 3.96792,-0.334644 4.23085,0 7.07531,1.07564 2.86838,1.051736 4.30256,3.442046 1.43419,2.366407 1.43419,6.382128 0,1.195155 -0.11952,2.079569 -0.11951,0.884415 -0.31074,1.553702 -0.16732,0.645383 -0.28684,1.123445 -0.11951,0.478062 -0.11951,0.884415 0,0.573674 0.35855,1.099543 0.38245,0.501965 0.88441,1.00393 0.52587,0.501965 0.90832,1.075639 0.38245,0.549771 0.38245,1.242961 0,1.027834 -0.66929,1.481992 -0.66929,0.454159 -1.48199,0.454159 -0.741,0 -1.24296,-0.501965 -0.47806,-0.478062 -0.88442,-0.956124 -0.38245,-0.478062 -0.95612,-0.478062 -0.33464,0 -0.741,0.191225 -0.38245,0.191225 -0.95612,0.597578 -0.71709,0.525868 -1.84054,1.171251 -1.09954,0.669287 -2.82057,1.147349 -1.72102,0.501965 -4.23084,0.501965 z m 0.64538,-3.657174 q 1.48199,0 2.86837,-0.454159 1.38638,-0.478062 2.48592,-1.290767 1.09955,-0.836609 1.74493,-1.936151 0.64538,-1.123446 0.64538,-2.414213 0,-0.812706 -0.54977,-1.171252 -0.52587,-0.358546 -1.74492,-0.454159 -1.21906,-0.09561 -3.22692,-0.09561 -1.98396,0 -3.68108,0.406352 -1.69712,0.38245 -2.72495,1.314671 -1.02784,0.908318 -1.02784,2.485922 0,1.219058 0.62148,2.00786 0.62149,0.788803 1.79274,1.195155 1.17125,0.406353 2.79666,0.406353 z m 27.73361,2.151279 q -1.482,0 -3.0835,-0.143419 -1.60151,-0.119515 -3.01179,-0.382449 -1.41029,-0.262934 -2.39031,-0.645384 -0.88442,-0.358546 -1.45809,-0.812705 -0.54977,-0.454159 -0.54977,-1.290768 0,-0.93222 0.54977,-1.410282 0.54977,-0.501965 1.60151,-0.501965 0.74099,0 1.84053,0.262934 1.12345,0.239031 2.53373,0.525868 1.41029,0.262934 2.98789,0.262934 1.5537,0 2.96398,-0.262934 1.41029,-0.286837 2.2947,-0.932221 0.88442,-0.645384 0.88442,-1.768829 0,-1.027834 -0.57368,-1.673217 -0.54977,-0.645384 -1.93615,-1.123446 -1.38638,-0.478062 -3.8962,-0.980027 -2.74886,-0.549771 -4.66111,-1.434186 -1.88834,-0.884415 -2.89227,-2.175182 -0.98003,-1.31467 -0.98003,-3.131306 0,-1.577605 0.88441,-2.724953 0.90832,-1.171252 2.46202,-1.912248 1.5537,-0.764899 3.53766,-1.123446 2.00786,-0.382449 4.20695,-0.382449 1.33857,0 2.72495,0.167321 1.41028,0.143419 2.60544,0.454159 1.21906,0.286837 1.96005,0.764899 0.741,0.454159 0.741,1.099543 0,0.69319 -0.33465,1.123446 -0.33464,0.430255 -0.88441,0.62148 -0.52587,0.191225 -1.17125,0.191225 -1.02783,0 -2.36641,-0.239031 -1.31467,-0.239031 -2.86837,-0.239031 -1.36248,0 -2.53373,0.286837 -1.17125,0.262934 -1.88834,0.860512 -0.69319,0.573674 -0.69319,1.529798 0,1.410283 1.52979,2.175182 1.55371,0.764899 4.54159,1.38638 2.77276,0.549771 4.5894,1.410283 1.84054,0.836608 2.77276,2.151279 0.93222,1.290767 0.93222,3.226918 0,1.840539 -0.88442,3.131306 -0.88441,1.290767 -2.41421,2.103473 -1.5298,0.788802 -3.51375,1.171251 -1.98396,0.38245 -4.15914,0.38245 z"
     id="text15"
     aria-label="migajas" />
</svg>
